<svg width="19" height="10" fill="none" xmlns="http://www.w3.org/2000/svg"><path d="M.327.544h3.146c.066 0 .13.018.184.05.054.034.096.081.12.136.347.798 1.793 3.922 3.116 4.177.983 0 .635-4.155-.614-4.155-.328 0 .581-.518.643-.54a7.511 7.511 0 0 1 3.547 0c.627.234.733.886.75 1.44.016.554-.697 2.916.241 3.171C12.69 5.16 14.27 1.73 14.64.887a.297.297 0 0 1 .12-.133.353.353 0 0 1 .183-.05h3.502a.36.36 0 0 1 .155.035.317.317 0 0 1 .118.095.264.264 0 0 1 .03.275 26.492 26.492 0 0 1-2.585 4.2.532.532 0 0 0 .066.728c1.048.999 3.916 3.828 2.277 3.828H14.97a.711.711 0 0 1-.265-.05.644.644 0 0 1-.218-.144c-.549-.54-2.146-2.04-2.867-1.92-.598.098-.655 1.002-.627 1.592a.545.545 0 0 1-.162.417.688.688 0 0 1-.444.196c-.627.033-1.483.047-1.56.043-2.499-.142-3.978-1.625-5.39-3.28A19.87 19.87 0 0 1 .016.93.264.264 0 0 1 .061.667a.324.324 0 0 1 .116-.09.365.365 0 0 1 .15-.033z" fill="#fff"/></svg>