<svg width="44" height="59" fill="none" xmlns="http://www.w3.org/2000/svg"><path d="M33.477 44.656a13.48 13.48 0 0 1-5.56 7.907c-4.504 1.574-7.367 1.5-11.861 1.36l-.436-.346-1.123-.833-.735-.689-1.235-1.331-.136-.04-.093.078-.068.169-.02.148.035.482-1.479-1.733-.998-1.354-.67-.698-.255.11a13.48 13.48 0 0 1-1.679-6.537c0-2.5.648-4.79 1.826-6.796l.833-.635 2.276-1.766 2.629-2.456 1.248-1.009c1.42-.518 2.95-.8 4.548-.8 5.196 0 9.7 2.99 11.908 7.355l.796 4.561.128 1.554h-.008l.126 1.442.003 1.488v.369z" stroke="#1B1918" stroke-width=".3" stroke-linejoin="round"/><path fill-rule="evenodd" clip-rule="evenodd" d="m33.587 44.178-.032.147c-.071-.029-.137-.074-.201-.111a.1.1 0 0 1 .085-.028c.054.021.101.003.148-.008zm-.506 1.774c-.35.972-.81 1.892-1.363 2.745-.129-.025-.21-.136-.332-.136.221-.191.114-.383.003-.676-.053-.145-.337-.553-.075-.434-.122-.217-.105-.347-.033-.568.084.199.132-.04.204-.065.165-.065.395-.088.544-.16.198-.095.257-.467.43-.457v.089h.115c-.026-.047-.032-.125-.054-.173.15 0 .166-.177.297-.225.138-.052.19.045.264.06zM8.843 47.886a13.444 13.444 0 0 1-1.576-4.864c.162-.26.637-.551.825-.498-.139.086-.174.323-.04.435.01-.03-.023-.208-.012-.22.076-.077.164-.048.164-.178.24.045.36.257.61.266.069.002.31-.21.427-.06-.176.08.026.133.138.093 0 .225.44.43.64.478.245.063.614.084.575.485.226 0-.014.303-.038.36.123.014.09-.139.15-.12.058.019.143.048.204.056-.002.013-.07.167-.085.19.162-.071.11-.123.341-.079.092.019.205.09.275.138-.188.099.262.067.39.093a.913.913 0 0 1 .503.227c.175.139.171-.047.249.236.035.13.044.12.002.262-.061.212-.292.321-.397.505-.144.253-.07.729-.249 1.043-.151.266-.225.247-.494.325-.17.049-.336.12-.456.264-.184.221-.09.703-.428.872-.013-.048-.003-.054.013-.106-.116-.017-.197.357-.3.45-.16.143-.26.13-.412.096l-.094-.16-.67-.7-.255.11zM7.17 41.734l-.001-.03c.105-.013.203.017.253.095-.02.023-.011-.015 0 0-.071.072-.18.015-.252-.065zm-.005-.297v-.194c.19.062.422.144.493.26-.2 0-.343-.022-.493-.066zm.12-1.897c.023-.172.049-.343.078-.513.046.155.12.229.059.367a.342.342 0 0 1-.137.146zm.085-.558a13.43 13.43 0 0 1 1.042-3.319c.047.038.084.085.183.064.186-.043.186-.253.303-.383.072.162.476.6.333.688.131.204.34.293.57.33-.134.114-.311.082-.398.231.183-.019.487-.186.574.05.085.23-.2.259-.378.333-.196.085-.172.111-.403.134-.147.01-.35-.043-.496 0-.22.063-.367.386-.623.329.05.013.101.028.151.039a.871.871 0 0 0-.21.26c.203-.13.69-.677.883-.376.07.112-.225.26.081.428.231.123.285-.03.473-.119-.072.212-.338.394-.574.422-.01.002-.286.177-.186-.028.033-.067.269-.16.308-.152-.284-.067-1.048.208-.847.59-.138.04-.352.055-.435.129-.067.065-.159.312-.201.405-.109-.112-.066-.04-.15-.055zm1.428-4.089.115-.206.016.016c-.015.05-.05.184-.072.225l-.059-.035zm5.319-4.626c.107.054-.007.137-.177.351.06.01.47-.209.57-.238.159-.041.336-.075.526-.098.026-.003.3-.018.321.014.12.178-.146.145-.195.177-.185.121-.307.115-.52.16.103.002.204.02.31.014-.078.099-.905.614-.67.805.002 0 .228-.136.32.006-.152.075-.066.001-.156.103.328 0 .223.066.177.34-.076-.153.063-.166-.105-.232-.04-.015-.196.004-.21.053-.037.121.282.12.276.334-.256.021-.042.16.04.242-.027.046-.414.065-.414.085 0 .083.411.021.157.192-.111.076-.35-.041-.432-.04a.33.33 0 0 0 .077.034c-.018.043-.048.039-.077.085.151-.05.217-.049.255.066.077.246-.181.056-.222.093.074.04.308.269.284.364-.064.257-.345-.04-.32-.04-.574-.023-.036.398.193.217-.06.16-.48.252-.65.318-.19.075-.19.165-.422.09-.03-.009-.07-.063-.107-.049-.003 0-.708.878-.688.462-.085.054-.101-.06-.092.1-.332.028-.25.262-.384.508-.03.06-.129.033-.147.072-.037.073.057.091.03.153-.045.102-.015.329-.124.388-.08.045-.57-.147-.67-.223-.223-.17-.324-.52-.223-.729a.478.478 0 0 0-.151.075c.013.033-.098-.201-.046-.153-.034-.03.088-.071.073-.107-.02-.041-.125-.014-.117.004-.02-.07-.366-.502-.037-.459-.004-.146.112-.172.26-.164-.05-.127-.05-.222-.09-.277l1.56-1.21 2.017-1.886zm14.222.163.093.069c-.044.037-.116.068-.095.034.013-.02-.104-.087.002-.103zm.246.184c.087.067.173.134.259.203a.2.2 0 0 1-.127-.02c-.045-.02-.2-.077-.21-.099a.517.517 0 0 1 .078-.084zm.292.23c.122.098.243.2.362.302l-.1-.01c-.324-.03-.436-.19-.262-.293zm.65.56.02.018a.161.161 0 0 1-.017.003c-.004 0-.005-.008-.003-.022zm.24.226c.288.278.563.569.825.87a.977.977 0 0 1-.263.108c.094 0 .238.006.33-.03.69.81 1.287 1.704 1.773 2.664l.228 1.305.353 2.023.127.93a.486.486 0 0 1-.325.086c.033-.151.128-.645-.182-.515-.017-.168.142-.2-.06-.29-.095-.043-.322.078-.407.126.118-.305.203-.27-.085-.16-.015.008-.278.125-.27.108-.141.23.18.058.148.305.113 0 .09-.132.177-.102.196.072.196.066.13.165-.076.112-.288.041-.296.25-.003.11.207.3.236.453.024.126-.044.111-.033.182.019.128.118.011.085.2-.044.259-.395.573-.585.716a.935.935 0 0 1-.352.192c-.11.035-.323.04-.42.13.005-.004-.043.583-.268.383-.092-.082.146-.257.11-.417-.549 0-.486.38-.248.692.157.204.276.425.085.69-.104.142-.303.19-.434.377-.064-.114-.007-.179-.051-.253-.015-.023-.115-.05-.142-.086-.122-.152-.11-.148-.246-.223-.157-.085-.024-.186-.184-.054-.1.084-.04.352-.032.413.043.268.222.258.375.442.105.132.105.452.208.632-.304.147-.446-.427-.514-.587-.057-.132-.216-.229-.257-.333-.068-.175.087-.282.089-.385.003-.19-.118-.656-.293-.704-.02-.005-.146.18-.257.093-.164-.13.094-.32-.13-.32 0-.087-.17-.472-.244-.52-.006-.004-.391.076-.478.126-.227.127-.516.487-.762.725-.127.127-.112-.046-.18.13-.02.052.003.168-.004.23-.013.12-.013.242-.065.348-.075.158-.212.296-.348.22-.13-.077-.224-.515-.275-.65-.078-.198-.153-.367-.19-.579-.019-.108.038-.234-.034-.33-.145-.207-.073.023-.21-.021-.083-.028-.498-.218-.136-.218-.205-.039-.218-.137-.354-.215-.253-.145-.342-.117-.657-.129-.136-.005-.426-.031-.542-.087-.063-.028-.074-.132-.12-.145-.061-.015-.166.015-.21 0-.26-.086-.336-.156-.557-.309-.18-.126-.325-.226-.275.079.014.087.19.282.247.323.018.011.387.115.395.145-.482.087-.072.078.19.1.01-.14.033-.148.105-.238.062.049.086.224.105.303.17-.169.051-.063.17.04.066.055.215.156.23.245-.135.057-.138.065-.138.25-.085-.035-.218.148-.282.218-.137.16-.255.121-.452.212-.153.07-.247.152-.44.23-.167.071-.368.235-.538.235-.378-.008-.2-.19-.334-.491-.1-.223-.337-.375-.454-.569-.182-.308-.25-.71-.529-1.003-.186.191-.3-.305-.465-.383.105-.056.21.06.323.01.092-.04.227-.215.262-.323.105-.308.083-.408-.205-.468-.003.04-.002.076 0 .115-.153.038-.195-.081-.29-.078.006 0-.24.05-.145.063-.09-.013-.183.008-.297-.094 0 .02.011.169-.04.169-.047 0-.21-1.143-.508-.703.022 0 .039.01.046.032-.086.039-.13.013-.21-.032-.024.052.138.296.216.296a.095.095 0 0 0 0-.078c.05 0 .081.035.105.078-.15.024-.419.462-.498.054-.076.089-.135.035-.177-.078.05-.01.064.001.118.018-.05-.097-.116-.334-.164-.424-.078-.143-.259-.213-.397-.316-.203-.148-.468-.518-.496-.102.092-.007.297.149.277.273.197.03.424.212.505.37-.042 0-.182-.028-.238-.046-.004.024-.007.046-.006.07h.113c-.09.221-.424.61-.636.237.791 0 .23-.34-.087-.59-.105-.085-.232-.329-.36-.351-.094-.015-.267.197-.302.2-.092.017-.243-.1-.326-.048-.1.062-.006.158-.061.205-.047.039-.312.117-.373.191-.046.056-.063.188-.085.22-.003.003.08.068.052.108-.046.065-.076-.008-.137.05-.15.14-.383.217-.572.284.034-.002.037.011.013.04-.108-.137-.167-.066-.282-.14-.18-.117-.11.01-.164-.197-.059-.233.044-.513-.026-.753.367-.156 1.271.306.898-.443-.066-.137-.142-.174-.206-.265-.044-.065-.22-.028-.081-.136.114-.09.494.143.302-.19.081-.007.157.106.28.067.038-.01.139-.247.152-.256.123-.095.45-.073.282-.29.131 0 .334-.069.45-.138.229-.133.142.03.155-.267.006-.116-.08-.244.037-.363.166-.17.221-.132.192.084a.094.094 0 0 0 .077 0c-.013.037-.037.104-.038.141.03.011.188-.044.236-.067.033.407-.292.082-.316.31a.423.423 0 0 0 .214.073c.022-.21.347-.019.423-.024.223-.02.335-.244.538-.035-.112-.186.061-.112.196-.112.003-.085-.008-.431.15-.489.132-.048.117.288.342 0-.08-.054-.087-.102-.177-.147-.048-.022-.184.198-.256.008.059-.019.101-.041.164-.041-.028-.011-.05-.026-.08-.037.004-.004.29-.099.37-.112.206-.026.455.052.629-.126-.312-.18-.777.197-1.043-.113-.378-.443.445-.586.406-.843-.017-.118-.245-.224-.345-.162-.129.082-.13.29-.186.363-.083.112-.251.117-.341.225-.181.21-.032.374-.032.549.242 0 .081.094.039.204-.013.033-.183.247-.223.312.04.032.06.034.13.026.01.023.01.043 0 .067-.121.03-.199.08-.34.13-.08.03.001.167-.187.093-.081-.03.022-.095-.009-.132-.112-.128-.208-.585-.336-.608-.194.246-.3.212-.59.212-.01-.07.028-.081.033-.156-.269-.022.131-.21-.164-.2.072-.26.116-.469.472-.543-.022-.067-.013-.045-.013-.099.092.02.391-.11.406-.24h-.105c.055-.053.153-.118.218-.123.037-.239.322-.57.516-.615-.146-.074-.347.054-.483.098.064-.086.138-.145.262-.145 0-.043.003-.022-.02-.066.084-.04.116-.1.171-.119.04.136.01.098.144.153.055-.172-.094-.057.066-.219.024.192.148-.013.111-.145.092-.01.229.077.229.172.053-.043.04-.063.04-.14.083.029.188.002.268.033-.146-.081-.17-.232.105-.204-.13.14.227-.051.282-.06v.086c-.022 0-.072-.01-.094 0 0 .187.064.125.088-.02.065.06.095.044.128.127-.01-.06.004-.096 0-.163.04-.01.138-.01.18 0a.796.796 0 0 1-.04.13c.135 0 .057-.128.247-.027.076.04.151.109.004.109.088.083.476.018.38.22.083.051.363 0 .551.07.12.045.432.165.465.295.137.538-1.013.08-1.121.059.122.16.284.326.36.457.09.15-.012.127.191.223.017.01.221.041.221-.026 0-.085-.407-.104-.136-.25.112.142.271.075.406.146.005-.056-.067-.168-.092-.206.094-.008.226-.16.274-.168.061-.013.277.038.257.049.083-.051.024-.471-.06-.554.189 0 .576.225.244.214-.03.407.408.003.443-.02.203-.137.432-.142.633-.26-.14.417.62-.217.62.15.466-.184-.231-.464.01-.501.056-.01.403.172.498.204.185.063.332.133.524.185.008.003.18.239.224.066.025-.098-.115-.096-.144-.159-.047-.096-.111-.079-.144-.15.037.074.035-.333-.008-.213.006-.019.255-.423.275-.44.157-.118.517-.062.472.16h-.084c-.015.168.038.771.19.758 0 .14-.067.236-.163.322-.105.09-.312.076-.367.158.255.018.25.064.45-.05a.4.4 0 0 0 .18-.154c.027-.045.014-.226.014-.226.37-.304.315.38.588.2-.026-.004-.192-.03-.192-.08 0-.14.012-.252-.2-.337-.172-.067-.133.141-.274-.09-.009-.014-.05-.418-.05-.42.026-.144.17-.046.17-.29a.06.06 0 0 0 .054-.013c.038.079 0 .289.033.33.096.123.306.042.386.165.022-.156-.547-.27-.058-.238 0-.089-.077-.082-.138-.112a.706.706 0 0 1 .439.028c.037.012.116.13.177.124.214-.016-.166-.24-.223-.376.214-.19.607.01.817-.146.192-.141-.118-.032-.01-.194.025-.038.255-.12.298-.137.133-.046.223-.06.332-.084.108-.027.352-.177.374-.18.118-.014.262.082.341.075.218-.024.238-.203.498-.142-.009-.042-.002-.031-.033-.071.047-.024.085-.05.12-.073zm-2.723 11.227c-.074.095-.022.619.173.439.11-.1-.136-.4-.173-.44zm5.707 2.182c.013.069.084.054.144.028-.05-.045-.076-.013-.144-.028zm-.118-.76c-.115.026.103.054.143.046 0-.076-.08-.058-.143-.046zm.774-.138c-.308-.06.18-.182 0 0-.01-.002.02-.022 0 0zm-.132.164c.047.022.068.145.088-.011-.066.01-.074.016-.088.01zm-.235.152c0 .048.275.093.354.093-.016-.149-.33-.108-.354-.093zm-.105.019c-.035-.008-.07-.017-.107-.024.063.154.135.04.107.024.01.005-.017-.008 0 0zm.162-.718c-.094.13-.16.149-.153.335.013.262.078-.056.233-.032.009-.087-.035-.163-.113-.158.019-.052.033-.093.033-.145 0 .013-.013.019 0 0zm-1.232.706s.135.172.118.153c-.005-.007.02.152.026.17.094-.062.072-.252.072-.356h.08c.009.043.15.363.206.337.1-.045-.085-.396-.142-.47.607 0-.36-.358-.36.166zm.76-.56c-.101.036-.682-.042-.655.204.19-.09.242-.07.445-.112.063-.015.083.058.159.026.04-.018.193-.178.051-.119.026-.011-.007.004 0 0zm-.136 1.42c0 .114.442-.105.49-.153-.173-.087-.46.1-.49.152zm-.054.11c-.053.008-.066.029-.038.068h.077c.007-.034.006-.082-.039-.067.01-.004-.018.007 0 0zm-.413-.269c.114.116.472.02.603-.035-.105-.019-.553-.019-.603.035zm-.046.086c-.164.05.136.132.19.128-.022-.026-.133-.14-.19-.128.007-.002-.02.005 0 0zm-.328-.114c-.095.008.236.028.302.028-.02.006-.024-.005-.013-.035-.109 0-.186-.011-.29.007.02-.002-.016.002 0 0zm-1.422-.223c.149.12.361.155.617.18.203.023.456.129.674.097-.061-.122-.189-.156-.327-.128.01-.093.076-.048.144-.09a5.499 5.499 0 0 0-1.108-.059zm-.4-.191c-.028.061-.01.091 0 0zm.93-.9c-.173.123-.064.344.034.474.142.196.201.175.472.22.273.048.186.119.341-.112.008-.011.035-.193.065-.245.04-.067.19-.097.236-.197-.173-.114-.125-.144-.164-.394.133.007.092-.082.223-.129.011.032-.316-.228-.288-.232-.103.008-.179.186-.26.259-.18.161-.496.479-.658.356zm-1.383.39c.008.088.151.304.236.322-.018-.119-.236-.312-.236-.321.002.02 0-.014 0 0zm-.21-.291c.033.063.096.082.125.147 0-.08-.022-.138-.105-.173-.024.063-.001.031-.02.026zm-.098-.173c0-.02-.04-.076-.04-.017 0 .054.033.078.079.086.017-.034.004-.056-.039-.07zm.046-.303c-.073 0-.114-.074-.184-.065.031.154.273.307.354.41.127.159.233.393.367.57.093.117.31.438.434.44.273.008.118-.258.334-.325-.024-.171-.181-.234-.316-.138-.015-.195-.73-.862-.989-.892.03.004-.01 0 0 0zm3.39-.457c-.141.015-.265.111-.19.271.115-.279.283.041.465.121-.064-.14.052-.17.054-.173.004-.026.057-.364-.06-.364-.117 0-.137.234-.268.145.009.007-.02.004 0 0zm-.387-.613c-.003.048.148.423.257.403-.056.122.14.206.092-.034-.022-.102-.238-.351-.349-.37.008.004-.002.019 0 0zm.19-.02c.164.116.273.337.45.373 0-.203-.186-.25-.186-.43-.107 0-.16.058-.264.058.02.015.02 0 0 0zm-.249.12c-.098.19-.348.379-.4.535.218 0 .4-.318.4-.535 0 .022-.003.01 0 0zm.102-.775c-.194.106-.146.503.075.574-.009-.126.271-.574-.075-.574zm.127-.835c0-.063-.26.15-.221.394h.077c0-.163.144-.243.144-.394zm-3.324-9.203c.044-.015.094 0 .139 0-.017-.166-.087-.035-.139 0zm-.295-.806c-.087 0-.15-.05-.24-.033.011.268.36.033.24.033zm-5.386 2.67c-.114-.02-.304-.156-.221.118.073 0 .208-.038.221-.119-.002.009-.007 0 0 0zm.506-.958c-.117-.011-.356.295-.356.455.068-.014.114-.057.153.026.024-.01.033-.028.026-.052.149.077.046.162.127.198.105.047.308.03.424.03-.015-.16-.192-.212-.203-.36-.015-.185.138-.291.25-.404a1.72 1.72 0 0 1 .89-.502c.112-.028.588-.127.538-.25-.073-.182-.348.022-.446.051-.238.078-1.03.098-1.03.39a.469.469 0 0 0-.143 0c.122.212-.308.204-.27.345.045-.009.058-.026.106-.02-.024.062.04.101-.066.093.02.002-.019-.002 0 0zm1.973.06c.103 0 .16-.066.188-.08.056-.03-.352.08-.188.08zm-.937-2.096c.148.224.247.011.413-.02-.153-.087-.269.068-.413.02zm-.32 0c0 .077-.054.055-.093.119.114.037.236.04.367.017-.109-.139-.098-.24-.275-.136zm-.047.239a.364.364 0 0 1-.105.02c.018.09.078.04.151.025-.007-.036-.002-.056-.046-.045.01-.002-.011.002 0 0zm-.46-.04c.062.053.071.134.165.013 0 .147.19.009.216-.013a.104.104 0 0 0-.008-.053c-.116-.022-.3.03-.372.053zm-.374.013c.11-.112.34-.16.506-.12-.039-.238.216.083.249-.138-.057 0-.107.01-.164 0 .022-.032.064-.108.079-.125-.09 0-.15.057-.197.072a1.54 1.54 0 0 0-.177.053c-.049.03-.065.097-.131.145-.093.067-.137.015-.165.113zm-.523-.179c-.194 0-.242.069-.427.033.01.142.251.046.362.046-.229.168.157.21.27.06.18-.245.009-.139-.205-.139zm-3.758.225c.043.109.28-.037.327.086-.065-.004-.131.002-.198 0 .12.335.775.036.926-.053-.147-.165-.354-.028-.485-.067.024-.05.058-.04.046-.099-.154.062-.114.009-.204.166-.058-.15-.48-.185-.412-.033.004.012-.007-.015 0 0zm-.263.502c0 .036-.351.015-.393.159.084-.019.35-.08.385-.034-.053.036-.34.082-.343.106-.007.045.25.17.304.245.17-.13.332-.38.332-.559a.697.697 0 0 1 .187 0c-.022.161.018.047.086.14.05.068-.053.125-.053.195.18-.114.2.037.27.026.071-.011.2-.09.274-.106-.08-.106-.16.016-.16-.139-.078.01-.6-.303-.615-.35a.117.117 0 0 1-.105 0c.017-.04.039-.065.048-.106-.197-.094-.203.015-.295.041.044-.013-.07.112-.083.115.03-.01-.05-.157-.063-.16.019.005-.22.092-.215.09.025-.041.037-.085.058-.12-.116.026-.604.144-.215.199 0 .05.009.176-.008.218-.072-.036-.062-.1-.15-.119.034.07.174.303.174.093.083.008.089.132.205.092.046-.015.072-.1.116-.105.006-.001.245-.023.259.079 0 .005-.004-.023 0 0zm-2.893 4.4a.244.244 0 0 0-.138.153c.055-.015.238-.171.138-.152.008 0-.024.007 0 0zm.139 1.482c.133 0 .232-.093.308-.106.116-.019.28.037.374-.006a.316.316 0 0 0 .175-.39c-.027-.097-.1.058-.103.054-.044-.047-.037-.123-.072-.153-.059-.052-.14-.174-.217-.265-.118-.14-.133-.106-.152-.218-.01-.074.292-.364-.157-.23.037-.065.043-.12.113-.16-.148-.149-.212.082-.268.126-.009.008-.307.11-.073.15-.02.07-.096.17-.092.213.077.009.175.072.195-.013-.018.258.116.115.212.323.109.242-.114.076-.23.22.044.01.079.007.13.012 0 .073-.177.103-.117.171.037.043.22-.02.282.04-.024.022-.39.232-.308.232zm-.113-.68c.292-.043-.463-.42-.287-.067-.139.026-.325.22-.098.21-.296.43.116.145.367.2.009-.104.02-.215.018-.343zm7.018 10.064c0-.254.181-.778-.118-.898 0 .09-.116.298-.17.346-.11.102-.281.06-.394.17-.087.085.011.35 0 .421-.02.134-.077.15-.105.318-.035.218.014.54.302.476.277-.061.189-.147.236-.396.004-.03.074-.312.08-.318.022-.031.17-.076.17-.119zm-2.178-6.306c-.125-.301-.197-.186-.472-.22-.397-.048-.703-.176-1.075-.262 0 .363.007.296-.236.3.05-.004-.214-.078-.189-.067h-.191a.282.282 0 0 1-.04-.106c-.115-.04-.466-.097-.538-.195-.134-.182.151-.216-.092-.374.065-.054.057-.061.146-.08-.124-.212-.463-.015-.644-.011-.192.004-.396-.082-.642.026-.166.07-.279.17-.498.163-.265-.003-.408-.19-.408.159h-.197c.089.321-.144.113-.195.219-.084.169-.056.37-.132.477-.046.064-.219.15-.289.238-.076.091-.166.246-.249.368-.081.123-.413.435-.367.621.013.052.2-.022.229.041.025.05-.037.074-.026.104.051.138-.035.365-.046.504-.013.17-.028.314.158.507.198.21.382.383.604.577.075.067.112.219.274.252.183.034.207-.044.38-.067.151-.018.266.049.37.045.217-.008.202-.091.38-.152.143-.049.453-.036.536 0 .131.06.098.156.291.2.336.075.318-.093.325.264.004.168-.063.381-.157.476.42.134.697 1 .63 1.413-.067.416-.316.433-.104.873.13.275.173.439.249.74.076.312.317.524.406.807.075.241-.04.318.079.45.317.349 1.157-.064 1.404-.331.096-.104.258-.285.313-.41.056-.122-.018-.297.013-.371.028-.06.236-.097.303-.186.178-.234-.09-.334-.04-.58.041-.199.407-.3.512-.397.26-.235.275-.497.21-.85-.037-.199-.22-.494-.144-.736.1-.325.513-.64.76-.859.183-.161.363-.347.485-.568.083-.147.137-.16.157-.357.033-.31.083-.237-.183-.238-.369-.002-.477.14-.734-.143-.147-.166-.385-.32-.525-.504-.139-.18-.283-.593-.367-.807-.128-.327-.201-.663-.434-.953.015.018-.01-.023 0 0zM8.038 41.84c.229-.052.559-.013.788-.093-.102-.126-.414-.085-.605-.111-.122-.015-.373-.16-.393.033-.013.123.098.193.21.171.026-.005-.017.004 0 0zm5.956-7.507c.12-.02.162-.017.196.106a.69.69 0 0 0-.262 0l.012.08c.268-.045.061.108.198.158.03.01.337.04.354.039.236-.011.256-.062.46-.171.17-.095.246.037.3-.146.022-.073-.103-.075-.131-.08.057-.328-.388-.035-.607-.064a4.042 4.042 0 0 1-.194-.027c-.094-.008.008-.149-.092-.027-.24-.08-.299.145-.234.132.018-.003-.018.004 0 0zm-4.041 2.643c-.052.033-.356.528-.334.565.046.078.208.004.297.03.134.04.164.096.299.16.204-.313.012-.42-.288-.517-.002.005.182-.327.026-.238.016-.008-.017.011 0 0zm-.709.292c-.13-.043-.188-.099-.315-.08.12.072.197.25.315.08-.005.009-.018-.006 0 0z" fill="#1B1918"/><path d="M17.47 13.585c-.046 1.639-.064 2.181.366 3.758.152-.019.37-.078.487-.018.868.443.756 2.877.711 3.613-.024 1.06-.087 1.92 1.295 1.485.34-.17.696-.356.98-.676" stroke="#1B1918" stroke-width=".3"/><path d="M29.558 20.396c-.314 2.395-1.587 5.174-4.073 5.84-.925.247-1.84.354-2.317.262-1.544-.296-.44-1.495-1.397-1.903-.561.12-1.008-.139-.687-.818-.694-.215-.46-.56-.755-1.355" stroke="#1B1918" stroke-width=".3"/><path fill-rule="evenodd" clip-rule="evenodd" d="M22.93 23.273c-.49.007-2.18-.387-2.089.077-.145-.021-.204.015-.23.097" fill="#1B1918"/><path d="M22.93 23.273c-.49.007-2.18-.387-2.089.077-.145-.021-.204.015-.23.097" stroke="#1B1918" stroke-width=".3"/><path d="M21.083 23.777c.504-.106 1.36-.33 1.844-.504" stroke="#1B1918" stroke-width=".3"/><path fill-rule="evenodd" clip-rule="evenodd" d="M21.77 24.595c.482-.15 1.126-.549 1.157-1.322l-1.156 1.322z" fill="#1B1918"/><path d="M21.77 24.595c.482-.15 1.126-.549 1.157-1.322M16.346 12.54c-.28.303-.282.278-.264.664.042.892.302.598 1.057 1.082-.862.225-.784.903.315.86" stroke="#1B1918" stroke-width=".3"/><path d="M16.654 12.896c-.377-.446-.644-.601-.305-1.156-.945-1.191-.404-2.232.59-3.256-.208-.437-1.078-.754-.095-1.708-1.671-1.146-1.113-3.29.336-4.083 1.555-.85 3.772-.498 4.853 1.01.572.797.194 1.556.146 2.48-.133 2.57 1.534.888 1.274 3.054.46.309.603.553.62 1.114" stroke="#1B1918" stroke-width=".3"/><path d="M17.96 12.2c-.467-.591-1.057-.238-1.242.383-.173.582.197.87.661.925.942.113 1.317-.615.99-1.378a3.425 3.425 0 0 1-.264-1.562c.042-.695.509-1.161.044-1.57" stroke="#1B1918" stroke-width=".3"/><path d="M21.173 14.018c-1.015-.475-2.241-.867-2.802-1.888" stroke="#1B1918" stroke-width=".3"/><path d="M19.075 10.621c.587 2.956 1.168 1.05 2.358 3.988.423 1.046 1.981 1.472 2.51.281.406-.915-.173-1.254-.514-1.161-.277.075-.353.5.04.61" stroke="#1B1918" stroke-width=".3"/><path d="M25.437 18.054c-.063-.666.258-1.352.18-1.61-.228-.742-1.29-.078-1.927-1.243M26.09 16.262c0 .851-.518.77-.37 1.792M25.721 18.055c.375-.944.794-.55 1.516-1.019.282 1.58 1.493 1.67 2.747.987 1.943 1.52 4.254 1.374 4.399 4.157.095 1.826.56 2.741 1.712 3.257.528.237 1.2.39 2.045.508" stroke="#1B1918" stroke-width=".3"/><path d="M34.908 19.413c1.094 1.167.428 2.43.69 3.976.242 1.424 1.016 1.817 2.287 2.189" stroke="#1B1918" stroke-width=".3"/><path d="M36.235 20.473c.402 1.175-.4 1.744-.274 3.457M35.183 19.157c2.671 2.412 6.185-1.207 2.273-4.709 1.535-.239 1.273-2.06.145-3.154-.577-.56-1.154-.632-1.618-.897 1.181-1.471-.944-3.411-2.105-4.2-.547-.881-.771-1.422-1.81-1.675-.236-.343-.828-.824-1.432-.87-1.43-1.046-3.376-1.296-5.136-.988-1.62.283-2.588 1.081-3.466 1.039" stroke="#1B1918" stroke-width=".3"/><path d="M36.404 20.111c.273.453.603 1.076.564 1.606-.052.697-.612 1.34-.586 1.932.04.908.965 1.015 1.759 2.296.817 1.318.158 2.742 1.794 3.435 1.115.473 1.357 1.011 1.477 1.84.058.396.087.858.17 1.411.978 6.513-.483 16.057-3.64 22.28-.68 1.344-.538 1.246-1.888 1.75-5.877.282-12.575.995-18.041.043-1.954-.34-1.666-.448-3.992-1.051-.581-.151-1.476-.99-2.046-1.496-2.022-2.366-1.484-1.398-2.828-4.25-.208-.428-.75-1.457-.402-2.073.387-.076.49-.153.757.284 1.03 1.674 1.948 2.325 2.743 3.442.393 1.945 1.121 1.683 1.56 2.915" stroke="#1B1918" stroke-width=".3"/><path d="M37.336 19.917c1.186 1.951-1.568 4.047 1.046 5.263 3.614 1.683 3.714 4.815 3.3 8.178" stroke="#1B1918" stroke-width=".3"/><path d="M38.448 25.213c1.243 2.226.773 1.6.974 3.877M39.802 27.4c.651 1.066.9 1.357 1.112 2.609" stroke="#1B1918" stroke-width=".3"/><path d="M39.591 25.887c.304 1.175.178 2.305.343 3.494M28.952 18.401c.199.98 1.504 1.12 1.753.123M27.174 7.004c2.514.387 6.919 2.01 8.503 4.072" stroke="#1B1918" stroke-width=".3"/><path d="M27.13 7.809c2.44.456 6.08 1.51 7.789 3.478.147.17.505.615.505.615M22.7 17.237c-.624.576-1.247 1.257-2.094 1.485M17.835 17.342c.357.544.318.5.97.627M19.063 19.836c-.343-.787-.277-.998-.258-1.867" stroke="#1B1918" stroke-width=".3"/><path d="M18.614 19.423c.175-.06.164-.053.237-.176" stroke="#1B1918" stroke-width=".3"/><path fill-rule="evenodd" clip-rule="evenodd" d="M23.354 16.462c-1.668-.277-2.688-.836-3.938.712l.42.036c1.456-1.216 1.606-.812 3.48-.669l.038-.08z" fill="#1B1918"/><path d="M20.627 17.736c.352.316.315.461.194.92M23.052 16.713c-.386.595-1.707.486-2.425 1.023M22.715 17.375c-.262.696-.575 1.293-1.4 1.272M39.182 17.957c-1.284 1.164-2.645 1.511-4.11.381.19 1.423-.48 1.298-1.934 1.472" stroke="#1B1918" stroke-width=".3"/><path d="M36.735 18.486c1.487.172 1.914-.677 2.141-2.211" stroke="#1B1918" stroke-width=".3"/><path d="M36.082 18.147c1.184-.034 1.772-.346 1.99-1.577.284-1.614-1.3-2.484-2.663-2.643" stroke="#1B1918" stroke-width=".3"/><path d="M36.198 17.225c1.983-1.1.46-3.527-1.254-2.466-.89.552-1.273 1.66-.946 2.773" stroke="#1B1918" stroke-width=".3"/><path d="M34.945 15.37c.476-.385 1.286-.412 1.467.149.368 1.145-.96 1.175-.74.306" stroke="#1B1918" stroke-width=".3"/><path d="M35.199 15.602c-.58.737-.596 1.802.364 2.134 1.36.47 2.2-.948 2.014-2.113M33.536 19.292c.89-.523 1.36-1.237.747-2.407M32.205 19.28c.458-.322 1.094-.434 1.375-.967.447-.846-1.317-1.8-1.632-.872-.316.931 1.043 1.655.745.155M31.135 18.21c.312-.671.326-1.413.077-2.113" stroke="#1B1918" stroke-width=".3"/><path d="M27.032 14.796c1.02-.193 1.623-.418 2.09-.272 1.045.328 1.317 1.542 3.488 2.203" stroke="#1B1918" stroke-width=".3"/><path d="M24.4 15.39c1.991-.208 2.872-1.621 3.961-1.719.582-.052 1.268.399 2.113 1.32 1.243 1.354 1.935 1.146 3.604.781" stroke="#1B1918" stroke-width=".3"/><path d="M28.453 16.705c-.912.039-.123 1.129.456.58.71-.672-.05-1.256-.635-1.481" stroke="#1B1918" stroke-width=".3"/><path d="M28.59 15.156c.684.543.979.869 1.104 1.355.25.966-.4 1.86-1.61 1.403" stroke="#1B1918" stroke-width=".3"/><path d="M28.736 14.86c1.212.9 2.14 1.57 1.247 3.164M26.105 15.963c1.078-.351.989-.76 2.042-1.145M26.526 16.237c1.823-.432.714-.473 1.705-1.06M25.896 15.665c1.23-.68.938-1.02 2.505-1.485" stroke="#1B1918" stroke-width=".3"/><path d="M25.327 14.774c1.04-.354 2.005-1.605 3.073-1.94 1.218-.38 1.818.698 2.49 1.592.491.654.684.934 1.492.944 1.64.02 2.304-.696 2.15-2.28-.091-.947-1.9-1.757-2.406-.352-.392 1.088.537 1.594 1.107 1.509.576-.087.795-.772.633-1.116-.253-.537-.836-.51-1.1-.227-.272.293-.212.852.497.852" stroke="#1B1918" stroke-width=".3"/><path d="M25.79 14.287c.695-.63 1.415-1.533 2.291-1.85 2.736-1.237 2.852 3.005 4.57 2.253-.848-.203-1.543-1.195-1.06-2.174.405-.822 1.487-1.606 2.547-.9.864.574 1.505 1.81 1.191 2.96M36.293 11.147c.366.737.613 1.745-.463 1.951" stroke="#1B1918" stroke-width=".3"/><path d="M36.882 11.36c.75 1.04.398 2.014-.442 2.418" stroke="#1B1918" stroke-width=".3"/><path d="M36.804 14.128c1.583-.542 1.41-1.638.688-2.935M26.274 13.119c1.4-1.965 2.781-1.876 4.757-.7" stroke="#1B1918" stroke-width=".3"/><path d="M25.958 13.735c-.255-1.536.603-2.807 2.623-3.077 1.68-.224 1.807.849 3.228 1.242" stroke="#1B1918" stroke-width=".3"/><path d="M27.327 10.66c2.376-2.24 2.968 1.01 5.346.318l-.447.759" stroke="#1B1918" stroke-width=".3"/><path d="M28.462 9.641c1.068-.806 1.15-.56 2.363-.84M30.547 10.024c1.769-1.284 2.878.597 1.2.7M33.032 10.299c.359.955.61.895 1.597.68M33.66 9.385c-.241-1.703.972-.706.219-3.187M34.883 9.621c.568-.933.284-1.67-.147-2.662" stroke="#1B1918" stroke-width=".3"/><path d="M34.258 9.777c-.016-1.831 1.163-1.42.099-3.228M35.199 10.108c.789-1.04.676-1.243.292-2.48M32.705 8.854c.294-1.021 1.177-.904.83-2.32M32.505 8.072c.565-.673.854-1.21.505-2.08M28.71 7.335c-.514-2.717 1.362-2.426.404-4.453M28.043 6.417c-.516-1.877 1.444-2.27.128-3.771" stroke="#1B1918" stroke-width=".3"/><path d="M27.642 6.525c-.473-.591-.846-1.167-.255-1.858.659-.77.875-1.189.029-2.108" stroke="#1B1918" stroke-width=".3"/><path d="M26.674 5.144c.543-1.096 1.174-1.695.104-2.602M29.464 7.551c-.372-1.313.295-1.982.409-3.446.376 1.043.298 1.65.063 2.715M30.837 8.026c-.55-1.406 1.4-2.367-.564-3.963M31.557 7.817c-.271-1.64 1-1.206-.19-3.33M32.21 7.478c.19-1.539.412-1.39-.142-2.956" stroke="#1B1918" stroke-width=".3"/><path d="M26.927 6.821c-.285-.573-.924-1.669-.648-2.29.397-.893.946-1.253-.046-1.96M22.178 6.673l.58-.15.61.191c-.387-.449-.895-.689-.969-.983-.33-1.315 1.428-1.404 1.79-.31.733-.785 1.253-.49 1.456.316.224.887-.01 1.044-.782 1.02.747.469.782 2.13-.355 2.255-.311.034-.81-.19-.866-1.152l-.217.524" stroke="#1B1918" stroke-width=".3"/><path fill-rule="evenodd" clip-rule="evenodd" d="M24.159 5.792c-.372.919-1.11.749-.268 1.436.327.266.615.08.602-.311-.015-.43-.334-.987-.334-1.125z" fill="#1B1918"/><path d="M24.187 3.028c.284.766-.167 1.187-.607 1.81M25.663 2.638c1.227 1.66-.71 1.494-.985 2.396M25.578 6.662c.49.2.558-.186 1.053-.435M25.187 6.945c1.518.103 1.985 2.242 2.586 3.294" stroke="#1B1918" stroke-width=".3"/><path d="M28.289 8.053c-.785.252-.798.414-.968 1.222M28.976 8.226c-.848.241-.853.833-1.539 1.426M28.695 9.038c-.503.315-.55.542-1.112.868M23.389 4.17c-.097-.488-.077-.373-.521-.62M25.178 4.042c.245-.529.373-1.03-.279-1.244M25.021 14.266c.603-1.587-1.195-2.618.509-3.519 1.254-.663 1.204-.256 1.26-1.762.282.737.492 1.305.217 2.213" stroke="#1B1918" stroke-width=".3"/><path d="M24.41 14.203c.61-1.897-1.275-2.333.287-3.485 1.478-1.09 1.258-.515 1.482-2.433.195.473.42.895.242 2.005" stroke="#1B1918" stroke-width=".3"/><path d="M23.876 13.836c.197-1.675-1.054-1.877-.083-3.152.792-1.041 1.698-.533 2.006-2.399M23.292 12.242l-.312-.669" stroke="#1B1918" stroke-width=".3"/><path d="M22.706 14.498c-.21-.994.343-1.778 1.222-1.103M23.758 10.427c-1.308.866-1.618 1.22-.442 2.46" stroke="#1B1918" stroke-width=".3"/><path d="M21.748 9.79c.644 1.797-.664 1.008 1.336 3.394M21.736 8.963c.668.646 1.01 1.067 1.221 1.993M21.19 4.699c-.059 1-.788 2.2.499 2.883.51.272 1.077.597 1.314 1.08.313.635.265 1.318.798 1.297" stroke="#1B1918" stroke-width=".3"/><path d="M20.854 7.266c.24 2.736.845.99 1.892 1.306-.839 1.004.452 1.073 1.048 1.987M22.695 14.998c-1.066-.118-.532-1.62-.959-2.226-.645-.915-1.256-1.011-1.316-1.907-.025-.367.29-.708.433-1.117" stroke="#1B1918" stroke-width=".3"/><path d="M22.433 13.354c-.713-2.127-1.823-1.43-1.158-3.24.121-.33-.042-.717-.484-1.024M21.295 13.078c-.58-1.317-1.07-.855-1.45-1.84-.3-.781.635-1.203.566-2.53" stroke="#1B1918" stroke-width=".3"/><path d="M19.949 9.43c-1.942.27-1.513 2.232-.484 3.5M17.885 9.386c-.797 1.293-.214 1.145-.388 2.515M17.275 9.004c-1.107.935-1.354 1.962-.273 3.087" stroke="#1B1918" stroke-width=".3"/><path d="M17.382 7.67c1.947 1.256-.91 1.202-.19 3.118M19.022 9.112c.127-.943.181-.976 1.095-1.315" stroke="#1B1918" stroke-width=".3"/><path d="M16.348 4.253c.634-1.515 2.179-1.602 3.01-.91.575.478.621 1.353.551 2.295-.115 1.555-.258 2.328 1.238 2.985" stroke="#1B1918" stroke-width=".3"/><path d="M18.411 4.658c.035-1.502-1.14-1.341-1.398-.426-.334 1.188 1.654.406 1.497 2.255M19.21 4.169c-.226 1.922-.272 2.059.706 3.701" stroke="#1B1918" stroke-width=".3"/><path d="M18.559 6.906c.254.856-.667.692-.824.188-.206-.665.428-1.664 1.981.852M20.327 3.256c.85 2.409-.794 3.644.684 5.017M21.138 3.554c1.857 1.922-.336 3.448 1.36 4.07M29.527 31.404c3.7-1.214 4.136-4.17 7.329-5.704M38.591 27.2c-3.892-.304-4.367 3.292-8.298 4.968" stroke="#1B1918" stroke-width=".3"/><path d="M38.725 27.874c-3.404-.261-5.237 3.91-7.315 5.673M28.877 30.843c3.852-1.167 4.158-3.852 7.219-5.406M32.432 35.242c1.148 5.209 1.363 10.403.59 15.734-6.038 1.796-8.46 3.55-17.028 2.896" stroke="#1B1918" stroke-width=".3"/><path d="M16.611 54.63c-.156-.455-.609-.784-1.922-1.74-1.315-.956-2.148-2.585-2.39-2.128-.109.204-.109.325-.054.799M20.999 24.011c-4.04-1.017-5.038.355-8.457 2.16-3.373 1.436-7.308 2.691-9.776 5.56-.793.923-1.998 2.754-.782 3.703 1.4 1.091 4.4.808 6.116.79" stroke="#1B1918" stroke-width=".3"/><path d="M30.633 28.642c-.124.625-.569.604-1.094.35-.285.553-.685.657-1.224.405l-1.092-.511c-.735.494-1.006.193-1.83-.117l-2.758-.837c-1.609.15-2.807-.406-4.273-.997l-1.053-.287" stroke="#1B1918" stroke-width=".3"/><path d="M6.352 36.241c4.541-2.464 7.504-6.376 12.009-9.308M12.615 54.718c-1.025-1.97-1.86-2.433-3.147-5.465-.138-.326-.173-.837.085-1.052M22.645 26.828c1.385.2 2.789.512 3.94 1.367.367.197.786.272.638.69M24.608 26.429c1.54.697 2.978 1.296 4.479 2.06.371.188.314.11.451.501M25.97 26.074c.908.404 4.797 2.017 4.645 2.66" stroke="#1B1918" stroke-width=".3"/><path fill-rule="evenodd" clip-rule="evenodd" d="M41.506 31.14c-.057.006-.189.033-.271.042l-.362.035a2.59 2.59 0 0 0-.419.079c-.022.006-.048.017-.07.021a1.124 1.124 0 0 0-.126-.251 1.487 1.487 0 0 0-.18-.229 1.301 1.301 0 0 0-.343-.262c-.041-.017-.063-.038-.113-.05-.04-.01-.076-.027-.115-.037a1.317 1.317 0 0 0-.699.028c-.06.018-.117.037-.175.064-.017.008-.02.014-.039.021-.055.024-.163.09-.207.125-.12.093-.227.21-.297.348l-.047.115a.702.702 0 0 0-.032.185c0 .023-.003.084.008.102.007-.042-.01-.097.012-.204a.814.814 0 0 1 .208-.396l.071-.07a1.4 1.4 0 0 1 .27-.186c.016-.007.03-.01.044-.02.056-.024.111-.05.17-.066l.09-.025c.198-.051.395-.052.596-.01a.948.948 0 0 1 .37.177c.076.063.142.14.2.217l.15.29c.011.029.019.06.028.09.044.145.022.07-.176.204a1.268 1.268 0 0 0-.272.234c-.094.109-.205.27-.26.407-.014.032-.022.036-.035.066l-.106.293c-.015.046-.024.09-.038.139-.032.116-.066.385-.092.533-.005.025-.004.037-.009.061l-.013.068c-.026.137-.057.218-.09.346-.007.026-.02.047-.026.073l-.094.287c-.077.204-.155.391-.237.594-.021.052-.041.085-.064.141-.02.05-.041.088-.064.142l-.067.134c-.049.096-.073.168-.132.274-.024.042-.118.32-.14.375.018-.014.405-.85.446-.927.082-.153.16-.334.24-.48l.173-.376c.034-.084.043-.112.083-.19.015-.028.014-.043.021-.066.013-.04.038-.092.054-.133.074-.18.136-.347.21-.53.076-.183.13-.345.196-.523.01-.027.007-.031.018-.06.051-.129.08-.196.144-.32a1.44 1.44 0 0 1 .21-.287.841.841 0 0 1 .167-.137 1.78 1.78 0 0 1-.01.255 3.07 3.07 0 0 1-.092.458c-.036.136-.125.356-.182.496-.015.039-.028.053-.044.094l-.09.186a5.643 5.643 0 0 1-.397.649c-.186.253-.297.383-.474.676l-.05.081-.14.263c-.03.051-.106.237-.13.293a4.16 4.16 0 0 0-.135.393c-.025.083-.047.16-.065.236.023-.042.035-.087.065-.128a.25.25 0 0 1 .037-.069.24.24 0 0 1 .026-.068.96.96 0 0 1 .017-.044l.055-.152c.013-.032.021-.036.034-.066l.032-.08c.039-.096.16-.322.212-.41.049-.081.104-.164.157-.245.016-.024.025-.033.04-.054.1-.15.217-.289.337-.422.133-.152.266-.303.386-.467.056-.077.108-.143.16-.227.024-.04.054-.081.08-.125l.074-.128c.026-.044.047-.094.07-.136l.067-.146c.024-.059.035-.1.058-.157.034-.084.06-.201.08-.29.021-.092.03-.182.039-.276a2.093 2.093 0 0 0-.043-.499.985.985 0 0 1 .247-.102c.065-.02.129-.041.196-.057.112-.026.225-.048.338-.07.046-.009.086-.02.132-.03l.135-.035c.001.02-.003.044-.005.067a.24.24 0 0 1 .016-.053c0-.012.002-.023.004-.035-.002-.018-.005-.033-.006-.051zm-2.865 4.204.014-.032-.014.032z" fill="#1B1918"/><path fill-rule="evenodd" clip-rule="evenodd" d="M40.06 36.17c.014.019.023.04.037.058.012.016.025.034.04.05.066.075.2.152.289.177.039.01.068.02.108.028.102.018.189.025.292.018.023-.002.042-.008.062-.007-.036-.046-.312-.18-.397-.205-.023-.007-.03-.008-.053-.017-.024-.01-.052-.017-.078-.024-.097-.027-.2-.059-.3-.077zm-1.518-.626c.16.188 1.24.562 1.456.614.088.205.2.293.393.386l.286.083c.104.014.105.016.218.012.135-.005.136-.033.172.017.033.045.058.09.078.146.008.022.005.025.016.05.007-.045-.063-.188-.109-.228.047-.02.146-.03.25-.093a.694.694 0 0 0 .269-.273.857.857 0 0 0 .071-.565 1.025 1.025 0 0 0-.369-.608l-.081-.066a2.974 2.974 0 0 0-.434-.264l-.63-.25c-.044-.012-.184-.062-.212-.058.018.012.038.015.06.022l.172.055c.053.014.1.041.142.055.02.006.02.002.043.014l.263.12c.15.076.288.156.418.262.08.067.173.147.235.231.114.153.197.285.218.48.031.296-.01.522-.252.69a.772.772 0 0 1-.288.112c-.02 0-.087-.053-.106-.066-.13-.084-.376-.2-.522-.241-.082-.023-.173-.06-.26-.075a.453.453 0 0 1-.01-.225l.049-.125a.472.472 0 0 1 .15-.156c.171-.11.38-.09.525.036l.028.02c-.036-.067-.174-.126-.249-.137-.292-.04-.578.193-.558.497.001.025.007.053.006.074-.015-.003-1.21-.392-1.254-.7l-.082.087a.307.307 0 0 1-.072.039c-.01.007-.02.019-.03.028zM35.327 46.282c.01-.014.018-.03.029-.044l.03-.04a.544.544 0 0 1 .222-.135c.03-.008.053-.015.084-.021a.831.831 0 0 1 .224-.014c.018.001.032.006.048.005-.028.036-.24.138-.305.157-.018.006-.024.007-.041.014-.019.008-.04.013-.06.018-.075.021-.154.046-.23.06zm-.88.206.084-.098c.073-.02.225-.047.295-.05l.256-.02c.06-.006.161-.025.197-.028.068-.158.154-.226.302-.297l.22-.064c.08-.01.081-.012.168-.01.104.004.105.026.133-.013a.437.437 0 0 0 .06-.112c.006-.017.003-.019.012-.038.005.035-.049.144-.084.175.036.016.112.024.192.071.092.055.158.12.207.21.07.132.083.289.055.435a.788.788 0 0 1-.284.468l-.063.05a2.3 2.3 0 0 1-.333.203l-.485.192c-.034.01-.141.048-.163.045.014-.01.03-.011.046-.017l.133-.042c.04-.01.076-.032.109-.042.015-.005.015-.002.032-.01l.203-.093c.115-.059.222-.12.321-.202.063-.051.133-.113.181-.178.088-.117.152-.218.168-.369.024-.227-.008-.4-.194-.53a.595.595 0 0 0-.222-.086c-.015 0-.066.04-.08.05-.1.065-.29.155-.402.186-.063.018-.134.045-.2.058a.408.408 0 0 0-.015.12c0 .016.004.037.007.053l.037.096c.027.047.071.09.117.12.13.084.29.069.403-.028l.021-.016c-.027.052-.133.098-.19.106-.226.031-.446-.148-.43-.382 0-.02.005-.04.005-.058-.062.015-.127.032-.189.042-.08.016-.16.03-.239.047-.047.01-.092.024-.138.037a.697.697 0 0 0-.175.07.235.235 0 0 0-.055-.03c-.008-.004-.016-.014-.023-.02zM39.073 46.897c.09.072.17.138.26.229l.206.23c.135.157.311.45.383.648.032.087.067.184.09.276.073.298.074.66-.037.923l-.03.071c-.01.025-.022.042-.032.066a.449.449 0 0 1-.057.094l-.065.09a.758.758 0 0 1-.158.16l.133-.144.037-.049.124-.217c.068-.152.106-.333.107-.524 0-.065-.003-.17-.017-.235a1.843 1.843 0 0 0-.106-.403 2.366 2.366 0 0 0-.238-.454l-.206-.266a2.857 2.857 0 0 0-.273-.271c-.048-.04-.196-.162-.25-.194a1.409 1.409 0 0 1-.047-.03h.176zm-.452 0c.12.118.235.257.299.415.078.192.098.384.016.571a.46.46 0 0 1-.068.105c-.03.038-.038.04-.07.065a.073.073 0 0 1-.03.017c.007-.01.047-.032.091-.083a.407.407 0 0 0 .063-.101.652.652 0 0 0-.02-.538.964.964 0 0 0-.139-.224 1.197 1.197 0 0 0-.241-.227h.1z" fill="#1B1918"/><path fill-rule="evenodd" clip-rule="evenodd" d="m33.628 47.605-.005-.021a.353.353 0 0 1-.006-.136.639.639 0 0 1 .027-.13c.005-.016.007-.018.012-.031.004-.01.006-.02.012-.031l.293-.445c.008-.01.008-.013.017-.023.016-.022.021-.036.036-.055l.1-.153a1.01 1.01 0 0 0 .057-.113.675.675 0 0 0 .044-.406c.04.015.146.136.173.168.028.034.05.069.076.102a1.1 1.1 0 0 1 .166.401c.003.028.009.053.01.078.023.316-.163.61-.393.807l-.082.07-.048.037c-.018.015-.025.023-.05.036-.014-.056.021-.248.033-.298l.017-.071.058-.198c-.04.014-.111.118-.132.153-.054.09-.118.273-.141.38-.008.037-.017.07-.023.105l-.005.026-.006.025a.283.283 0 0 0-.005.054c-.028 0-.08-.056-.1-.078a.5.5 0 0 1-.135-.252zM37.381 51.627l-.005-.021a.354.354 0 0 1-.007-.136.636.636 0 0 1 .028-.13c.005-.017.006-.018.012-.032l.011-.03.294-.445.016-.024c.017-.021.022-.035.037-.054l.1-.153c.022-.036.039-.073.056-.113a.675.675 0 0 0 .044-.406c.04.014.147.136.173.168.028.034.05.068.076.102a1.1 1.1 0 0 1 .167.4c.003.028.008.054.01.078.023.317-.164.61-.394.808l-.082.069-.047.038c-.019.014-.026.023-.05.036-.014-.056.02-.248.033-.299l.017-.07.058-.198c-.041.013-.111.118-.132.153-.055.09-.118.272-.142.38-.008.037-.017.07-.023.105l-.005.025c-.002.01-.004.015-.005.026a.275.275 0 0 0-.006.053c-.027 0-.08-.055-.1-.078a.5.5 0 0 1-.134-.252zM38.826 47.805c-.017-.015-.087-.05-.122-.072-.234-.142-.365-.268-.573-.439-.165-.135-.298-.252-.536-.225-.127.015-.256.062-.382.094-.036.009-.048.018-.087.028l-.192.036a.677.677 0 0 1-.352-.042c-.019-.007-.013-.01-.037-.01.024.028.053.046.082.068.101.078.253.162.372.207.124.048.19.06.315.072l.013.002.005.001a.512.512 0 0 1-.12.01l-.111-.003a1.267 1.267 0 0 1-.398-.092c-.019-.009-.167-.087-.18-.087.094.086.23.175.338.24l.247.125c.096.039.169.058.272.082.05.012.098.014.15.018.122.01.205-.016.35-.05.107-.025.24-.041.35-.047.105-.006.286.004.385.027.013.003.017.006.032.008.058.01.166.049.179.049zM35.532 49.68c-.01.021-.06.081-.085.115-.16.224-.23.392-.354.632-.099.19-.176.35-.404.42-.122.036-.26.044-.388.065-.036.006-.052.003-.091.01l-.19.042a.68.68 0 0 0-.308.18c-.014.013-.008.013-.03.023.012-.036.031-.064.049-.095.063-.112.169-.25.26-.339.096-.093.151-.13.262-.191l.011-.007.004-.003a.513.513 0 0 0-.113.039l-.101.047c-.104.048-.255.16-.33.243-.014.015-.12.146-.131.15.052-.115.142-.252.216-.355l.178-.212a1.64 1.64 0 0 1 .217-.184c.042-.03.086-.051.131-.075.11-.059.195-.068.342-.094.108-.02.236-.058.34-.096.099-.037.261-.118.343-.178l.026-.02c.05-.032.134-.111.145-.116zM38.175 46.411l-.01.01.01-.01zm-.096-1.55c.06.022.213.216.254.288l.04.085a.954.954 0 0 1 .058.517c-.003.02-.011.041-.015.062-.017.105-.005.04-.03.123-.017.056-.035.121-.06.175l-.098.2c-.014.03-.046.071-.053.1.06-.022.159-.13.195-.186.076-.117.081-.116.146-.277.09-.227.039-.455.177-.667.11-.17.283-.16.387-.212.078-.039.318-.22.355-.276.027-.043.067-.29.075-.353.012-.108.021-.214.017-.325l-.036-.397c.012.015.013.034.016.052l.01.06c.034.236.055.531.01.77l-.024.148c-.07.302-.16.512-.31.77-.08.138-.179.267-.282.389a3.468 3.468 0 0 1-.62.574c-.168.116-.237.164-.427.264-.019.01-.027.012-.047.024l-.1.054c-.02.01-.032.019-.05.026a.283.283 0 0 1 .042-.055c.12-.123.368-.395.449-.52.015-.025.03-.044.042-.065.148-.242.259-.56.196-.84l-.018-.07c-.038-.15-.16-.308-.274-.41l-.015-.015-.003-.003-.008-.01zM33.636 48.155l.13-.05c.27-.102.588-.158.88-.143l.15.02c.108.024.166.036.271.084l.129.058.086.033c.1.044.265.079.38.094.131.018.203.006.332-.013.066-.01.114-.032.164-.055.032-.014.112-.058.128-.087-.014-.005-.093.005-.12.004-.03 0-.081-.003-.114-.008l-.39-.122c-.161-.058-.322-.12-.495-.142a1.992 1.992 0 0 0-.602-.002c-.089.013-.182.038-.264.056a2.764 2.764 0 0 0-.357.118l-.284.137-.012.007c-.012.009-.005.003-.012.011zM37 37.328l-.01-.14c-.02-.29.017-.613.114-.89l.063-.14c.053-.097.08-.15.157-.238l.092-.107c.02-.026.036-.05.056-.074.07-.085.15-.234.197-.34.055-.122.063-.195.082-.325.01-.067.002-.119-.005-.174-.005-.035-.024-.125-.047-.148-.008.012-.022.09-.03.116-.01.03-.026.079-.04.109l-.227.341c-.102.14-.206.278-.276.438a2.04 2.04 0 0 0-.174.581c-.013.09-.016.187-.022.27-.007.086 0 .293.01.38l.05.313.003.013c.005.015.002.006.007.015zM35.242 47.492c-.11.027-.22.054-.327.07l-.024.012c.107-.002.298-.015.394-.029l.209-.033a1.6 1.6 0 0 0 .213-.052c.033-.013.072-.016.106-.03.03-.013.07-.025.1-.035.066-.021.124-.05.186-.077.163-.072.257-.147.39-.244a1.72 1.72 0 0 0 .323-.35l.053-.087c.056-.095.1-.193.13-.301.031-.108.063-.249.034-.365-.019-.078-.071-.078-.12.022-.059.122-.06.217-.098.325a1.244 1.244 0 0 1-.159.327c-.165.253-.52.51-.788.625a3.41 3.41 0 0 1-.622.222zM35.837 50.612c.01.038.034.068.058.084.15.099.307-.136.145-.234-.11-.068-.23.041-.203.15zM35.746 50.886c.01.039.01.059.053.084.077.045.17-.036.15-.117-.02-.081-.133-.109-.186-.037-.01.013-.023.047-.017.07z" fill="#1B1918"/><path fill-rule="evenodd" clip-rule="evenodd" d="M37.422 49.957c.022-.008.037-.018.044-.035-.009.005-.015.007-.024.014l-.018.017-.002.004zM38.54 51.97c.012-.006.012-.007.023-.015.022-.017.007.004.017-.02-.022.008-.033.018-.04.035zM38.078 48.363c-.01-.022-.011-.022-.03-.03a.06.06 0 0 0 .03.03zM35.017 47.197c-.014-.005.013-.007-.018-.002-.005 0-.017.004-.022.006l.001.005.039-.01zM38.659 48.9c-.01-.019-.008-.017-.024-.024.01.02.007.018.024.025zM34.944 47.21l.028-.008-.002-.005-.028.007.002.005zM38.75 48.272c-.01-.019-.005-.012-.022-.019.01.02.005.013.023.02zM38.73 48.98c-.005-.012.004-.001-.008-.014-.006-.007-.005-.005-.01-.008l.005.018.013.003zM37.392 49.804l-.024.005.002.006.01-.003c.01-.005.007-.003.011-.008zM38.723 48.25c-.008-.017-.001-.01-.017-.016.009.017.002.01.017.016zM38.694 48.228c-.008-.017-.001-.01-.016-.016.008.017.001.01.016.016zM38.611 48.853c-.008-.016-.001-.009-.017-.015.009.017.002.01.017.015z" fill="#000"/><path fill-rule="evenodd" clip-rule="evenodd" d="M38.636 48.878c-.009-.016-.002-.009-.017-.015.008.017.001.01.017.015zM38.783 48.685c-.008-.016-.001-.01-.017-.015.009.016.002.01.017.015zM37.427 49.783c-.029.007-.011.002-.016.01.029-.007.011-.002.016-.01zM37.413 49.793l-.012.003c-.01.006-.006.004-.011.01l.011-.004c.01-.006.006-.004.011-.009zM37.377 49.992c.008.004.02-.015.006-.005 0 0-.019-.003-.006.005zM37.337 50.02c.008.004.02-.015.006-.006 0 0-.019-.002-.006.005zM39.627 47.957l.002.006.006-.007h-.008zM38.662 48.199l-.001-.006-.006.007.007-.001z" fill="#000"/><path fill-rule="evenodd" clip-rule="evenodd" d="m38.767 48.672-.002-.007-.006.007h.008zM38.58 48.824l-.001-.006-.006.007h.008zM38.69 48.934v-.006l-.007.007h.008zM38.775 48.587l-.001-.006-.006.007h.007zM38.7 48.231l-.008-.005.008.005zM38.707 48.235l-.008-.004.008.004zM38.597 48.84l-.01-.012.01.012zM38.62 48.864l-.01-.012.01.012zM38.667 48.91l-.01-.011.01.011zM38.674 48.914l-.008-.004.008.004zM38.672 48.915l.007.013-.007-.013zM38.699 48.946l-.01-.012.01.012zM38.705 48.949l-.007-.005.007.005zM38.715 48.959l-.01-.012.01.011zM38.588 48.828l-.008-.004.008.004zM33.583 48.262l-.013.007.013-.007zM38.017 48.308l-.007-.014.007.014zM38.023 48.31l-.007-.004.007.004zM38.033 48.321l-.01-.012.01.012zM37.413 49.964l-.012.01.012-.01zM37.405 49.973l-.014.007.014-.007zM38.04 48.325l-.007-.005.008.005zM37.361 50.002l.014-.007-.014.007zM37.363 50.002l-.013.007.013-.007zM38.049 48.337l-.01-.012.01.011zM39.629 47.958l-.008-.005.008.005zM37.423 49.956l-.012.01.012-.01zM38.672 48.21l-.01-.011.01.011zM38.73 48.253l-.008-.004.008.004zM38.678 48.212l-.008-.005.008.005zM38.543 51.97l-.011.01.011-.01zM38.533 51.977l-.013.008.013-.008z" fill="#000"/><path fill-rule="evenodd" clip-rule="evenodd" d="M40.926 41.035c.02-.014.044-.023.065-.038.017-.013.038-.026.056-.042a.78.78 0 0 0 .205-.31c.013-.041.025-.073.035-.117a1.04 1.04 0 0 0 .034-.253v-.067c-.001-.025-.006-.047-.005-.069-.04.03-.163.252-.19.316-.017.035-.038.075-.05.111-.009.025-.011.033-.022.057-.009.021-.012.036-.02.058l-.01.027-.066.207-.015.06c-.007.022-.012.038-.017.06zm-.16 3.564.115-.045a1.05 1.05 0 0 0 .353-.29 1.36 1.36 0 0 0 .13-.204c.007-.018.013-.022.021-.04.028-.057.049-.114.069-.174.073-.22.098-.47.047-.702-.01-.04-.025-.078-.033-.118-.011-.05-.032-.073-.048-.115a1.31 1.31 0 0 0-.25-.352 1.471 1.471 0 0 0-.223-.188c-.06-.04-.184-.12-.246-.134.005-.022.016-.047.024-.07.034-.103.08-.32.09-.42l.043-.363c.012-.087.045-.23.051-.281.227-.087.328-.207.437-.414l.104-.31c.02-.115.023-.116.024-.24 0-.15-.03-.151.027-.189.05-.034.1-.059.16-.079.026-.008.028-.004.056-.015-.049-.01-.206.06-.252.11-.02-.053-.027-.163-.089-.28a.758.758 0 0 0-.283-.308.917.917 0 0 0-.609-.106 1.108 1.108 0 0 0-.676.377l-.075.086c-.11.136-.222.311-.307.465l-.1.195-.2.486-.009.023c-.011.032-.066.185-.064.208.014-.02.018-.041.026-.065l.069-.188c.016-.057.048-.106.066-.153.007-.02.003-.02.016-.046l.143-.283c.055-.099.112-.195.177-.287.013-.02.026-.035.04-.053a1.32 1.32 0 0 1 .087-.108c.076-.086.167-.183.261-.248.171-.118.318-.203.531-.217.321-.02.564.036.735.31.045.073.107.24.107.323 0 .022-.061.092-.075.113a2.628 2.628 0 0 0-.287.562c-.029.09-.072.188-.094.284a.566.566 0 0 1-.17.013c-.023-.001-.052-.008-.074-.013l-.133-.06a.49.49 0 0 1-.162-.174.483.483 0 0 1 .065-.575l.023-.03c-.075.037-.146.186-.16.267a.562.562 0 0 0 .154.493.497.497 0 0 0 .356.146c.028-.001.059-.006.082-.004l-.037.135c-.013.046-.024.086-.034.132l-.062.271-.018.068c-.005.022-.01.045-.018.068l-.043.128c-.025.075-.062.18-.108.245a2.045 2.045 0 0 0-.494-.056l-.137.01c-.05.007-.09.011-.138.021-.088.019-.205.04-.29.073-.057.022-.098.032-.157.055l-.146.063c-.042.021-.093.042-.138.067l-.128.072c-.044.024-.087.053-.127.076-.084.05-.152.1-.23.155a5.202 5.202 0 0 0-.32.248l-.152.128a3.807 3.807 0 0 1-.428.329c-.021.014-.031.023-.055.038-.082.051-.165.104-.248.151-.089.05-.316.167-.411.203l-.08.03c-.03.012-.036.02-.068.032l-.152.052c-.053.02-.094.03-.151.052l-.002-.005c.187-.072.351-.135.507-.222.47-.263.78-.553 1.099-.985l.016-.02c.01-.015.015-.025.027-.041.02-.03.038-.055.057-.086l.47-.904c.016-.032.027-.061.044-.092l.008-.014.214-.448c.02-.047.038-.097.064-.141.03-.05.05-.11.078-.161l.01-.022a.978.978 0 0 0 .021-.045l.132-.275c.014-.033.03-.057.045-.091l.257-.5c.093-.162.182-.33.298-.477l.064-.083c.064-.084.138-.168.22-.235l.189-.138c.257-.162.364-.129.487-.173-.035-.009-.074.004-.111.01-.102.017-.096.022-.174.043-.132.034-.267.109-.373.19-.074.055-.133.114-.197.174a.506.506 0 0 0-.036.038c-.11.121-.204.253-.297.388l-.053.083c-.126.2-.248.414-.352.627-.01.018-.016.023-.024.042l-.194.386c-.034.075-.117.222-.149.295l-.085.17c-.026.06-.06.114-.085.172-.007.016-.012.03-.02.045-.009.017-.014.02-.022.039l-.368.727a3.373 3.373 0 0 1-.53.756c-.093.103-.19.196-.298.285-.134.11-.41.313-.561.371l-.002-.005a.83.83 0 0 0 .112-.06c.34-.215.618-.477.85-.804.077-.11.144-.219.208-.335l.171-.356c.037-.092.08-.182.108-.277.063-.205.113-.364.151-.58l.053-.408c.03-.277.001-.734-.07-1.005-.03-.12-.064-.253-.109-.372-.144-.382-.417-.78-.736-.983l-.086-.055c-.031-.019-.056-.03-.086-.048a.59.59 0 0 0-.133-.059l-.138-.048c-.074-.021-.224-.064-.295-.054l.255.055c.025.008.052.016.077.026l.3.142c.19.115.368.284.512.492.05.072.124.189.158.271a2.46 2.46 0 0 1 .188.523c.052.232.08.442.082.68l-.026.449a3.85 3.85 0 0 1-.094.506c-.023.08-.093.327-.127.403-.046.105-.108.294-.165.386l-.203.367-.046.069c-.034.054-.264.366-.32.405l.205-.367.033-.075c.053-.119.052-.13.09-.231l.058-.198.01-.04c.048-.231.073-.485.021-.718-.06-.27-.182-.497-.414-.638a.606.606 0 0 0-.153-.064c-.061-.018-.072-.015-.125-.018a.098.098 0 0 0-.047.006c.016.005.077-.001.164.02a.536.536 0 0 1 .145.063.864.864 0 0 1 .383.605c.02.116.029.238.017.351-.028.274-.062.346-.147.586l-.008.019c-.034.085-.05.104-.074.158a3.07 3.07 0 0 1-.236.407l-.206.255a3.17 3.17 0 0 1-.278.263l-.037.028-.137.108c-.028.019-.045.036-.071.052-.148.095-.148.102-.324.198a2.945 2.945 0 0 1-.283.126l-.204.069c-.498.147-1.238.368-.262.2.026 0 .06-.004.086-.003.115.002.412-.038.53-.058a3.61 3.61 0 0 0 .375-.085c.13-.036.252-.072.394-.127.057-.022.243-.093.294-.121l.265-.135.082-.048c.295-.17.427-.279.683-.459.198-.139.422-.263.654-.383l.188-.085c.04-.015.055-.028.094-.042.14-.053.361-.137.497-.17a3.01 3.01 0 0 1 .457-.08 1.75 1.75 0 0 1 .253-.003.843.843 0 0 1-.14.164c-.081.072-.191.155-.29.204a2.834 2.834 0 0 1-.322.136c-.029.01-.033.007-.06.017-.178.062-.34.112-.525.182-.183.07-.35.129-.531.198-.04.016-.093.039-.133.05-.023.007-.038.006-.066.02-.079.039-.106.047-.191.08l-.378.164c-.146.075-.329.15-.482.228-.078.04-.679.338-.693.357a1.1 1.1 0 0 0 .137-.064c.107-.057.179-.08.275-.125l.135-.064c.054-.022.093-.042.142-.06.057-.022.09-.042.143-.062.203-.076.39-.15.595-.222l.288-.088c.025-.005.047-.017.072-.023.128-.03.21-.059.347-.082l.067-.011c.024-.004.035-.003.06-.007.148-.022.416-.05.532-.079.049-.012.093-.02.14-.034l.292-.1c.03-.011.035-.02.067-.032.136-.052.3-.16.41-.251.103-.086.166-.163.24-.267.139-.197.064-.221.207-.172.03.01.06.018.089.03l.164.08.12.08c.074.059.148.129.209.206.079.1.146.262.166.378a1.325 1.325 0 0 1-.054.69c-.01.032-.02.052-.031.084l-.005.011-.035.074c-.009.015-.012.028-.02.044-.03.061-.136.215-.19.267l-.073.07a.804.804 0 0 1-.399.198c-.106.02-.16.002-.202.008.017.011.078.01.101.01a.69.69 0 0 0 .184-.027zm-3.96-.93.032-.013-.002-.005-.032.012.002.005zm-.046.023.043-.016-.002-.006-.043.017.002.005zm-.067.032.057-.028c-.018.007-.046.013-.057.028zm0 0-.062.03c.015-.006.052-.016.062-.03zm-.14.066.026-.01-.002-.005-.026.01.002.005zm-.143.19c.003 0 .009-.003.01-.004.01-.007.006-.004.01-.01l-.02.014zM37.127 52.608c.016.008.034.011.052.019.014.006.031.013.047.022.071.038.157.13.194.196.016.029.03.05.043.08.013.03.025.056.035.088.01.03.02.06.026.093l.01.049c.003.018.002.035.007.05a1.19 1.19 0 0 1-.185-.202c-.017-.024-.038-.05-.053-.074-.01-.017-.012-.023-.024-.039-.01-.014-.014-.024-.024-.039l-.01-.018-.078-.142-.02-.041-.02-.041zm-.634-2.58.09.016a.78.78 0 0 1 .425.29c.008.012.013.014.022.026.029.037.052.076.075.117.086.15.14.33.136.506 0 .03-.007.06-.007.091 0 .039-.013.058-.018.091a.981.981 0 0 1-.133.294 1.102 1.102 0 0 1-.295.304c.007.015.019.032.027.048.04.07.105.221.126.293l.085.26c.021.061.066.16.078.197.178.03.27.103.38.239l.12.211c.031.08.033.081.052.172.022.108 0 .114.047.134a.458.458 0 0 0 .13.034c.018.002.02-.001.042.002-.035.015-.16-.013-.2-.042-.007.04.004.122-.025.217a.568.568 0 0 1-.162.267.685.685 0 0 1-.43.166.823.823 0 0 1-.548-.175l-.068-.053a2.43 2.43 0 0 1-.29-.294l-.103-.128-.216-.326-.01-.015c-.013-.022-.075-.126-.077-.142.013.012.02.027.029.043l.077.127c.02.04.051.07.07.102.01.014.006.015.02.031l.145.187c.054.064.11.125.17.183l.037.033a.992.992 0 0 0 .08.066c.068.051.148.11.226.143.142.061.262.102.42.08.237-.032.406-.108.491-.335a.64.64 0 0 0 .032-.25c-.003-.017-.058-.06-.072-.072a1.954 1.954 0 0 1-.29-.37c-.034-.06-.08-.126-.11-.193a.42.42 0 0 0-.126.016c-.017.004-.037.014-.052.02l-.088.064a.366.366 0 0 0-.093.15.36.36 0 0 0 .13.411l.02.018c-.059-.015-.132-.113-.155-.171a.419.419 0 0 1 .042-.383.373.373 0 0 1 .24-.158c.02-.004.042-.005.06-.01L37 52.467c-.015-.032-.03-.06-.043-.091l-.085-.19-.023-.047c-.007-.015-.014-.031-.023-.046l-.05-.087a.748.748 0 0 0-.114-.164c-.12.054-.225.088-.353.114l-.102.013c-.037.002-.067.004-.104.004-.067 0-.155 0-.222-.01-.045-.008-.076-.01-.122-.017l-.117-.025c-.033-.01-.073-.017-.11-.029l-.104-.033-.103-.038a3.855 3.855 0 0 1-.46-.214l-.13-.07a2.831 2.831 0 0 0-.36-.178l-.046-.02c-.068-.025-.136-.051-.203-.073a3.412 3.412 0 0 0-.33-.088l-.063-.01c-.024-.005-.029-.01-.054-.014l-.118-.016c-.042-.007-.074-.008-.119-.015v.004c.147.025.276.046.402.087.381.124.65.29.946.559l.014.012.026.026.054.055.475.59c.016.021.028.042.045.061l.008.01.221.296c.022.03.042.065.067.093.029.033.052.073.08.107l.011.014a.645.645 0 0 1 .022.03l.136.181c.015.023.03.038.046.06l.26.328c.092.104.18.214.287.305l.058.05c.06.052.126.103.195.14l.158.073c.212.08.285.041.381.055-.025.012-.054.008-.083.009-.077.002-.073-.002-.133-.006a.833.833 0 0 1-.3-.084c-.062-.03-.113-.063-.169-.098a2.754 2.754 0 0 1-.305-.262l-.05-.053a5.194 5.194 0 0 1-.349-.406c-.009-.012-.014-.015-.023-.028l-.198-.254c-.035-.049-.118-.145-.151-.193l-.087-.112c-.028-.04-.06-.074-.087-.113l-.021-.03c-.009-.01-.013-.013-.022-.025l-.374-.477a2.5 2.5 0 0 0-.756-.64c-.113-.06-.344-.168-.463-.188v.004c.025.004.068.02.09.028.279.107.52.257.737.462.072.069.137.139.2.214l.177.235c.04.062.084.122.12.187.075.14.134.249.193.4l.098.292c.062.198.107.536.095.744-.005.092-.01.194-.026.288-.05.3-.192.63-.396.827l-.055.052c-.02.019-.037.03-.056.048a.443.443 0 0 1-.089.062l-.093.056a.745.745 0 0 1-.208.083l.178-.078.053-.03.198-.148c.122-.112.228-.261.303-.435.026-.06.064-.156.077-.221a1.834 1.834 0 0 0 .062-.41 2.367 2.367 0 0 0-.04-.509l-.083-.324a2.857 2.857 0 0 0-.142-.356c-.028-.055-.115-.225-.15-.276-.05-.07-.123-.198-.177-.257l-.202-.239-.044-.043a2.403 2.403 0 0 0-.292-.249l.203.238.035.05c.056.079.057.087.1.156l.07.136c.005.01.01.018.013.027.069.162.123.344.12.522-.005.206-.062.39-.21.527a.452.452 0 0 1-.103.069c-.042.022-.05.021-.089.031a.072.072 0 0 1-.035.003c.01-.006.056-.01.116-.04a.397.397 0 0 0 .097-.066.646.646 0 0 0 .193-.498.965.965 0 0 0-.039-.26c-.06-.195-.095-.243-.192-.406l-.008-.013c-.037-.057-.051-.068-.077-.105a2.275 2.275 0 0 0-.231-.262l-.188-.156a2.336 2.336 0 0 0-.241-.151l-.03-.016-.117-.058c-.023-.01-.038-.02-.06-.028-.121-.048-.122-.053-.264-.097a2.207 2.207 0 0 0-.226-.05l-.158-.02c-.386-.035-.959-.088-.22-.108.018-.004.043-.006.062-.01a3.27 3.27 0 0 1 .396-.036c.096-.003.185 0 .286.007.1.007.195.016.306.035.045.007.191.032.233.045l.213.06.067.023c.24.08.352.14.565.234.165.073.346.13.534.184l.149.035c.032.005.045.012.075.017.11.018.283.047.387.051.111.005.24.005.346-.008a1.3 1.3 0 0 0 .186-.036.63.63 0 0 0-.127-.099 1.066 1.066 0 0 0-.241-.106 2.126 2.126 0 0 0-.255-.053c-.023-.003-.025 0-.047-.003-.139-.02-.264-.032-.41-.056-.143-.025-.274-.042-.416-.066-.032-.006-.073-.015-.105-.018-.017-.002-.028.001-.05-.005-.063-.016-.085-.018-.152-.03l-.3-.064c-.117-.034-.261-.061-.385-.096-.062-.017-.545-.147-.557-.159a.814.814 0 0 1 .109.026c.086.026.142.032.219.052l.108.027c.042.008.074.017.113.023.044.007.071.017.112.024.16.026.308.052.468.074l.222.022c.02 0 .037.006.056.007.099.003.162.012.266.009l.05-.002c.018 0 .027-.003.045-.004.112-.005.312-.025.4-.02.038.002.071.001.107.004l.228.03c.024.004.029.01.054.014.107.018.242.072.336.123a.942.942 0 0 1 .214.16c.13.123.079.152.176.095.02-.011.042-.022.06-.035l.109-.082.075-.076a.95.95 0 0 0 .124-.182.717.717 0 0 0 .067-.3.986.986 0 0 0-.14-.497c-.011-.021-.022-.034-.035-.056l-.005-.008-.036-.049-.021-.029c-.03-.04-.13-.137-.178-.167l-.063-.04a.598.598 0 0 0-.32-.087c-.08.002-.117.023-.15.025.012-.011.056-.02.074-.023a.512.512 0 0 1 .138-.007zm-2.758 1.262.025.004v.004l-.026-.004.001-.004zm-.037-.011.033.006v.004l-.034-.006v-.004zm-.054-.014.046.013c-.014-.003-.035-.003-.046-.013zm0 0-.05-.012c.013.002.04.004.05.012zm-.112-.027.021.003v.005l-.022-.004.001-.004zm-.131-.118.008.001c.007.004.004.002.008.006l-.017-.007zM35.037 38.383l-.01-.025a.438.438 0 0 1-.036-.163.787.787 0 0 1 .006-.164c.003-.02.005-.023.009-.04.002-.014.003-.025.008-.04l.265-.6.015-.032c.016-.03.02-.047.033-.073l.09-.206c.02-.05.032-.097.045-.15a.83.83 0 0 0-.029-.5c.052.009.206.134.244.168.04.035.075.072.113.107.093.085.25.327.284.452.009.033.02.062.028.092.092.38-.074.773-.313 1.06l-.085.1c-.019.023-.032.036-.05.056-.02.022-.027.034-.054.055-.028-.066-.025-.305-.02-.37l.006-.088.03-.252c-.047.025-.11.166-.129.212-.048.121-.087.355-.094.49-.002.047-.006.09-.007.133v.032l-.002.031c0 .024 0 .042.005.067-.034.005-.108-.051-.137-.074a.614.614 0 0 1-.215-.278zM39.945 36.856c-.017-.016-.087-.05-.123-.072-.234-.143-.365-.268-.573-.44-.165-.135-.298-.252-.535-.224-.127.014-.256.062-.383.093-.035.01-.048.019-.087.028l-.192.037a.677.677 0 0 1-.352-.043c-.018-.007-.012-.01-.037-.009.025.028.054.046.083.068.1.077.252.162.371.207.125.047.19.06.316.072l.013.002h.004a.513.513 0 0 1-.119.01l-.111-.003a1.267 1.267 0 0 1-.398-.092c-.02-.008-.167-.086-.18-.086.094.085.23.175.338.24l.247.124c.096.04.168.059.271.083.05.011.099.013.15.017.123.01.206-.015.351-.05.107-.025.24-.04.35-.047.105-.005.286.005.384.028l.033.008c.057.01.166.048.179.049z" fill="#1B1918"/><path fill-rule="evenodd" clip-rule="evenodd" d="M36.052 42.855c-.009.021-.058.083-.081.117-.154.228-.221.397-.34.64-.094.192-.167.354-.394.43-.12.04-.258.05-.386.075-.036.006-.051.003-.09.01l-.19.048a.682.682 0 0 0-.303.187c-.014.014-.007.014-.03.023.011-.035.03-.063.047-.096.06-.113.163-.253.253-.344.093-.096.147-.134.257-.198l.01-.007c.002 0 .003-.002.004-.003a.517.517 0 0 0-.112.041l-.1.05c-.103.051-.25.167-.324.25-.013.016-.116.15-.127.155.05-.117.136-.256.207-.36l.173-.217c.071-.075.13-.124.213-.189.041-.032.084-.053.13-.079.107-.06.193-.072.339-.102.107-.022.235-.063.337-.104a1.72 1.72 0 0 0 .339-.186c.01-.008.013-.013.026-.021.048-.033.13-.114.142-.12zM34.319 39.644l-.01-.01.01.01zm-.096 1.55c.061-.021.213-.216.255-.288l.04-.085a.953.953 0 0 0 .057-.517c-.003-.02-.011-.041-.014-.061-.017-.106-.006-.04-.031-.124-.017-.056-.035-.121-.06-.175l-.098-.2c-.014-.03-.045-.071-.053-.1.06.022.159.13.195.186.076.117.082.116.146.277.091.227.04.456.177.668.11.169.283.16.388.212.078.038.317.218.354.275.028.043.068.29.075.354.012.108.021.213.017.324l-.036.397c.012-.015.013-.034.016-.052l.01-.06c.035-.236.056-.531.01-.77l-.024-.148a2.563 2.563 0 0 0-.31-.77 2.739 2.739 0 0 0-.282-.389 3.453 3.453 0 0 0-.62-.574c-.168-.116-.237-.164-.427-.264-.019-.01-.027-.012-.047-.024l-.1-.054c-.02-.01-.032-.019-.05-.026.009.018.03.041.043.055.119.124.367.396.448.521.016.024.03.043.042.064.149.242.26.56.196.84l-.018.07c-.038.15-.16.308-.273.41l-.016.015-.002.003c-.008.008-.004.003-.008.01zM38.589 46.815l.108-.02c.226-.044.465-.14.656-.271l.094-.078c.063-.06.098-.093.15-.17l.063-.093.045-.059a1.37 1.37 0 0 1 .218-.222c.082-.067.137-.089.232-.13.049-.02.09-.026.134-.032.027-.003.1-.007.122.007-.008.008-.065.035-.083.047a.842.842 0 0 0-.074.053l-.214.245c-.086.108-.17.217-.278.304-.137.11-.24.182-.407.254-.066.028-.14.05-.202.072-.063.023-.223.06-.291.07l-.25.026h-.01c-.012-.001-.005 0-.013-.003zM36.342 40.012c.148.201.418.246.601.109a.418.418 0 0 0 .142-.156c.014-.024.02-.045.029-.07a.445.445 0 0 0-.357-.578c-.015-.002-.023 0-.037-.001-.017-.001-.02-.002-.037 0l-.113.017a.443.443 0 0 0-.228.68zM35.732 39.544c.045.06.1.12.187.123.397.012.336-.56-.023-.495a.248.248 0 0 0-.2.24.219.219 0 0 0 .036.133zM38.17 34.742c.03.04.055.062.1.07.082.016.177-.057.182-.14.007-.101-.082-.187-.182-.169a.168.168 0 0 0-.126.132.14.14 0 0 0 .026.107zM33.85 38.588c.03.041.055.062.1.07.083.016.177-.056.182-.14.007-.1-.082-.186-.182-.168a.168.168 0 0 0-.126.131.14.14 0 0 0 .027.107zM41.64 40.463c.028.112.22.083.187-.053a.094.094 0 0 0-.117-.069.097.097 0 0 0-.07.122z" fill="#1B1918"/><path d="M33.325 48.332c1.265-.791 1.53-.681 2.594-.861.818-.139 1.086-.52 1.918-.706 1.452.036 2.049.481 3.068-.684M39.331 51.677c-2.01.76-4.235-.284-6.308-.7M33.17 39.476c3.88-1.117 2.684-1.356 4.9-3.503 2.014-1.95 2.334-.9 3.397-4.287M33.554 44.326c4.958.019 4.55-2.965 8.18-4.236" stroke="#1B1918" stroke-width=".3"/></svg>